<svg id="Layer_1" data-name="Layer 1" xmlns="http://www.w3.org/2000/svg" viewBox="0 0 223.91 56.07"><defs><style>.cls-1,.cls-5{fill:none;}.cls-1,.cls-4,.cls-7{stroke:#4285f4;}.cls-1,.cls-3,.cls-4,.cls-5,.cls-7{stroke-miterlimit:10;}.cls-2,.cls-4,.cls-7,.cls-8{fill:#4285f4;}.cls-3,.cls-6{fill:#009c37;}.cls-3,.cls-5{stroke:#009c37;}.cls-7{font-size:39.49px;}.cls-7,.cls-8{font-family:TwCenMT-Regular, Tw Cen MT;}.cls-8{font-size:18.89px;}</style></defs><title>logo-bresil</title><line class="cls-1" x1="45.64" y1="50.5" x2="9.2" y2="5.66"/><line class="cls-2" x1="45.64" y1="50.5" x2="9.2" y2="5.66"/><line class="cls-3" x1="38.73" y1="50.5" x2="3.55" y2="5.66"/><line class="cls-4" x1="29.3" y1="14.23" x2="37.47" y2="5.66"/><line class="cls-4" x1="29.3" y1="14.89" x2="21.14" y2="5"/><line class="cls-4" x1="28.05" y1="21.49" x2="15.36" y2="5.78"/><line class="cls-4" x1="28.05" y1="21.49" x2="45.64" y2="5.66"/><line class="cls-5" x1="31.82" y1="50.5" x2="0.41" y2="7.64"/><line class="cls-6" x1="31.82" y1="50.5" x2="0.41" y2="7.64"/><line class="cls-4" x1="48.78" y1="47.2" x2="33.7" y2="28.74"/><line class="cls-4" x1="49.41" y1="39.29" x2="41.24" y2="29.4"/><line class="cls-4" x1="41.24" y1="29.4" x2="49.41" y2="20.83"/><line class="cls-4" x1="30.91" y1="25" x2="49.78" y2="8.3"/><line class="cls-4" x1="33.7" y1="28.74" x2="48.78" y2="15.55"/><line class="cls-5" x1="26.16" y1="50.5" x2="0.41" y2="15.55"/><line class="cls-6" x1="26.16" y1="50.5" x2="0.41" y2="15.55"/><line class="cls-5" x1="21.14" y1="50.5" x2="0.41" y2="22.8"/><line class="cls-6" x1="21.14" y1="50.5" x2="0.41" y2="22.8"/><line class="cls-5" x1="14.86" y1="49.84" x2="0.41" y2="30.06"/><line class="cls-6" x1="14.86" y1="49.84" x2="0.41" y2="30.06"/><line class="cls-3" x1="0.41" y1="50.5" x2="9.83" y2="50.5"/><line class="cls-3" x1="9.91" y1="50" x2="0.41" y2="36.65"/><text class="cls-7" transform="translate(56.41 32.53) scale(0.69 1)">GERENCIADOR</text><text class="cls-8" transform="translate(56.2 50.82) scale(0.95 1)">DE CLIENTES</text></svg>